<svg width="24" height="24" viewBox="0 0 24 24" fill="none" xmlns="http://www.w3.org/2000/svg">
<g id="wallet 3">
<g id="Wallet">
<path id="Vector" d="M19.91 4.09C19.6104 4.02985 19.3055 3.9997 19 4H6.99998C6.73476 4 6.48041 3.89464 6.29287 3.70711C6.10534 3.51957 5.99998 3.26522 5.99998 3C5.99998 2.73478 6.10534 2.48043 6.29287 2.29289C6.48041 2.10536 6.73476 2 6.99998 2H19C18.5342 1.37902 17.9303 0.875003 17.236 0.527864C16.5418 0.180725 15.7762 0 15 0H4.99998C4.22375 0 3.45819 0.180725 2.76391 0.527864C2.06963 0.875003 1.46571 1.37902 0.999979 2C0.346936 2.86342 -0.00440629 3.91744 -2.04674e-05 5V19C-2.04674e-05 20.3261 0.526764 21.5979 1.46445 22.5355C2.40213 23.4732 3.6739 24 4.99998 24H19C20.3261 24 21.5978 23.4732 22.5355 22.5355C23.4732 21.5979 24 20.3261 24 19V9C23.9985 7.83289 23.5887 6.70309 22.8417 5.80634C22.0947 4.90959 21.0576 4.30241 19.91 4.09ZM17.24 17C17.1603 17.0096 17.0797 17.0096 17 17C16.2043 17 15.4413 16.6839 14.8787 16.1213C14.3161 15.5587 14 14.7956 14 14C14 13.2044 14.3161 12.4413 14.8787 11.8787C15.4413 11.3161 16.2043 11 17 11C17.3416 10.9978 17.6806 11.0589 18 11.18C18.6373 11.416 19.1756 11.8615 19.5267 12.4434C19.8778 13.0253 20.021 13.7092 19.9327 14.383C19.8444 15.0569 19.5299 15.6808 19.0407 16.1526C18.5515 16.6244 17.9166 16.9161 17.24 16.98V17Z" fill="#7F3DFF"/>
<path id="Vector_2" d="M17 15C17.5523 15 18 14.5523 18 14C18 13.4477 17.5523 13 17 13C16.4477 13 16 13.4477 16 14C16 14.5523 16.4477 15 17 15Z" fill="#7F3DFF"/>
</g>
</g>
</svg>
